<svg xmlns="http://www.w3.org/2000/svg" width="76" height="38" fill="none" viewBox="0 0 76 38"><rect width="76" height="38" fill="#012169"/><path fill="#fff" fill-rule="evenodd" d="M56.8182 38L38 28.8508V19H43.8638L76 34.6243V38H56.8182Z" clip-rule="evenodd"/><path fill="#C8102E" fill-rule="evenodd" d="M72.0231 38L38 21.4583V19H40.5766L76 36.2225V38H72.0231Z" clip-rule="evenodd"/><path fill="#fff" fill-rule="evenodd" d="M22.9334 19L0.000733091 30.1499L0.000732422 38L9.97928 38L37.9999 24.3764L37.9999 19L22.9334 19Z" clip-rule="evenodd"/><path fill="#C8102E" fill-rule="evenodd" d="M37.9991 18.0661L3.90707e-08 36.5413L0 37L6.68929 37L37.9991 21.7771L37.9991 18.0661Z" clip-rule="evenodd"/><path fill="#fff" fill-rule="evenodd" d="M15.068 -1.68828e-06L38 11.1496L38 19L28.022 19L0.000863536 5.37608L0.000864094 -2.79753e-06L15.068 -1.68828e-06Z" clip-rule="evenodd"/><path fill="#C8102E" fill-rule="evenodd" d="M1.92009 -2.65623e-06L38 17.5421L38 19L33.3659 19L0.000863806 2.77788L0.000864094 -2.79753e-06L1.92009 -2.65623e-06Z" clip-rule="evenodd"/><path fill="#fff" fill-rule="evenodd" d="M55.1237 19L76 8.85014L76 0L68.0781 0L38.0001 14.6236L38.0001 19L55.1237 19Z" clip-rule="evenodd"/><path fill="#C8102E" fill-rule="evenodd" d="M41.9794 19L76.0007 2.45918L76.0007 0L73.4259 0L38.0008 17.2234L38.0008 19L41.9794 19Z" clip-rule="evenodd"/><rect width="38" height="11" x="32" y="38" fill="#fff" transform="rotate(-90 32 38)"/><rect width="76" height="11" y="14" fill="#fff"/><rect width="76" height="7" y="16" fill="#C8102E"/><rect width="38" height="7" x="34" y="38" fill="#C8102E" transform="rotate(-90 34 38)"/></svg>